<svg xmlns="http://www.w3.org/2000/svg" xmlns:xlink="http://www.w3.org/1999/xlink" fill="none" width="20" height="20" viewBox="0 0 20 20">
  <defs>
    <clipPath id="master_svg0_44_11303">
      <rect x="0" y="0" width="20" height="20" rx="0"></rect>
    </clipPath>
  </defs>
  <g>
    <g clip-path="url(#master_svg0_44_11303)">
      <g>
        <path d="M17.564967578125,10.77876C17.408467578125,11.11434,17.141867578125,11.38036,16.822567578125,11.5404L4.749627578125001,17.6336C3.8931375781249997,18.0524,2.859585578125,17.7108,2.424898578125,16.8719C2.233570078125,16.4668,2.1947614781249998,16.0095,2.327222478125,15.583L3.647577578125,11.28473C3.768467578125,10.89116,4.132007578125,10.62253,4.543747578125,10.62253L9.164647578124999,10.62253C9.504287578125,10.62116,9.782027578125,10.34674,9.789777578125001,9.997589999999999C9.787627578125,9.653839999999999,9.513317578125001,9.37598,9.164647578124999,9.37264L4.547147578125,9.37264C4.133787578125,9.37264,3.7692175781249997,9.10192,3.649687578125,8.70622L2.346753278125,4.39264C2.074155578125,3.4930000000000003,2.588745578125,2.533445,3.499347578125,2.2639328C3.920837578125,2.1314327,4.3767875781250005,2.1716476,4.769157578125,2.38112L16.822567578125,8.47428C17.664567578125002,8.904340000000001,18.003367578125,9.93915,17.564967578125,10.77876Z" fill="#FFFFFF" fill-opacity="1"></path>
      </g>
    </g>
  </g>
</svg>