<svg t="1746706169522" class="icon" viewBox="0 0 1024 1024" version="1.1" xmlns="http://www.w3.org/2000/svg" p-id="13749" width="200" height="200"><path d="M512 887.466667c-68.983467 0-132.215467-16.503467-187.886933-49.032534a392.977067 392.977067 0 0 1-77.738667-60.791466 388.9664 388.9664 0 0 1-59.869867-76.765867C153.344 644.590933 136.533333 581.051733 136.533333 512c0-69.102933 16.827733-132.386133 50.039467-188.125867 15.3088-26.965333 35.549867-53.248 59.8016-77.499733a381.218133 381.218133 0 0 1 78.728533-60.8768C379.989333 153.053867 442.965333 136.533333 512 136.533333s132.573867 16.810667 188.8256 49.954134a388.829867 388.829867 0 0 1 76.8 59.886933 392.96 392.96 0 0 1 60.7232 77.602133c32.631467 55.842133 49.134933 119.057067 49.134933 188.023467 0 68.949333-16.469333 132.4032-48.964266 188.603733a414.651733 414.651733 0 0 1-60.8768 77.056 398.7968 398.7968 0 0 1-75.639467 59.682134C645.4272 870.656 581.614933 887.466667 512 887.466667z m0-682.666667c-56.644267 0-107.946667 13.329067-152.456533 39.6288a313.7536 313.7536 0 0 0-64.887467 50.210133c-19.933867 19.9168-36.437333 41.301333-49.066667 63.556267C218.402133 403.831467 204.8 455.3728 204.8 512c0 56.695467 13.6192 108.561067 40.4992 154.1632a319.965867 319.965867 0 0 0 49.3568 63.197867 325.154133 325.154133 0 0 0 64.0512 50.210133C403.643733 805.8368 455.2704 819.2 512 819.2c57.2416 0 109.4144-13.636267 155.0336-40.516267a327.458133 327.458133 0 0 0 62.3104-49.322666 345.2928 345.2928 0 0 0 50.517333-63.675734c25.9584-44.936533 39.355733-96.887467 39.355734-153.685333 0-56.712533-13.3632-108.3392-39.714134-153.4464-13.175467-22.3232-30.088533-43.861333-50.141866-63.8976a320.8704 320.8704 0 0 0-63.214934-49.373867C620.561067 218.4192 568.6784 204.8 512 204.8z" p-id="13750"></path><path d="M512 955.733333a17.066667 17.066667 0 0 1-17.066667-17.066666v-85.333334a17.066667 17.066667 0 1 1 34.133334 0v85.333334a17.066667 17.066667 0 0 1-17.066667 17.066666z m214.203733-57.173333a17.066667 17.066667 0 0 1-14.848-8.618667l-41.813333-73.403733a17.066667 17.066667 0 0 1 29.661867-16.896l41.813333 73.403733a17.083733 17.083733 0 0 1-14.813867 25.514667z m-427.554133 0a17.066667 17.066667 0 0 1-14.6944-25.719467l42.666667-72.533333a17.066667 17.066667 0 0 1 29.422933 17.3056l-42.666667 72.533333a16.9984 16.9984 0 0 1-14.728533 8.413867z m582.826667-156.16a16.913067 16.913067 0 0 1-8.4992-2.286933l-72.533334-41.813334a17.032533 17.032533 0 0 1-6.263466-23.296 17.015467 17.015467 0 0 1 23.296-6.263466l72.533333 41.813333a17.032533 17.032533 0 0 1 6.263467 23.296 17.032533 17.032533 0 0 1-14.7968 8.5504z m-738.0992 0a17.066667 17.066667 0 0 1-8.533334-31.8464l72.533334-41.813333a17.066667 17.066667 0 1 1 17.0496 29.559466l-72.533334 41.813334a17.015467 17.015467 0 0 1-8.516266 2.286933zM512 699.733333c-51.694933 0-96.529067-18.619733-133.239467-55.3472C342.596267 608.238933 324.266667 563.694933 324.266667 512c0-51.6096 18.295467-96.4096 54.391466-133.137067C415.5904 342.562133 460.3904 324.266667 512 324.266667c51.694933 0 96.238933 18.3296 132.386133 54.493866 36.096 36.096 54.7328 80.2816 55.3472 131.328v46.045867l56.200534-56.200533a17.0496 17.0496 0 1 1 24.132266 24.132266l-85.333333 85.333334a16.964267 16.964267 0 0 1-10.922667 4.9664h-0.034133a23.04 23.04 0 0 1-3.259733-0.1024h-0.034134a16.9472 16.9472 0 0 1-9.966933-4.949334l-85.248-85.248a17.0496 17.0496 0 1 1 24.132267-24.132266L665.6 556.1344V510.293333c-0.512-42.205867-15.342933-77.397333-45.346133-107.400533C590.318933 372.957867 554.922667 358.4 512 358.4c-42.9568 0-78.677333 14.592-109.2096 44.5952C372.992 433.322667 358.4 469.0432 358.4 512c0 42.922667 14.557867 78.318933 44.4928 108.253867C433.408 650.769067 469.0944 665.6 512 665.6c29.5936 0 56.405333-7.441067 79.633067-22.1184a17.066667 17.066667 0 1 1 18.2272 28.8768C581.0688 690.517333 548.1472 699.733333 512 699.733333z m426.666667-170.666666h-85.333334a17.066667 17.066667 0 1 1 0-34.133334h85.333334a17.066667 17.066667 0 1 1 0 34.133334z m-768 0H85.333333a17.066667 17.066667 0 1 1 0-34.133334h85.333334a17.066667 17.066667 0 0 1 0 34.133334z m638.3104-170.666667a17.066667 17.066667 0 0 1-8.6016-31.829333l73.386666-42.666667a17.066667 17.066667 0 1 1 17.169067 29.508267l-73.386667 42.666666a16.810667 16.810667 0 0 1-8.567466 2.321067z m-593.1008 0a16.759467 16.759467 0 0 1-8.5504-2.321067l-73.386667-42.666666a17.0496 17.0496 0 1 1 17.152-29.508267l73.386667 42.666667A17.0496 17.0496 0 0 1 215.876267 358.4z m467.626666-125.44a17.083733 17.083733 0 0 1-14.813866-25.514667l41.813333-73.386666a17.083733 17.083733 0 0 1 29.661867 16.896l-41.813334 73.386666a17.066667 17.066667 0 0 1-14.848 8.618667z m-341.2992-0.853333a17.032533 17.032533 0 0 1-14.728533-8.413867l-42.666667-72.533333a17.066667 17.066667 0 0 1 29.422934-17.3056l42.666666 72.533333a17.066667 17.066667 0 0 1-14.6944 25.719467zM512 187.733333a17.066667 17.066667 0 0 1-17.066667-17.066666V85.333333a17.066667 17.066667 0 0 1 34.133334 0v85.333334a17.066667 17.066667 0 0 1-17.066667 17.066666z" p-id="13751" fill="currentColor"></path></svg>