<svg xmlns="http://www.w3.org/2000/svg" xmlns:xlink="http://www.w3.org/1999/xlink" fill="none" version="1.1" width="20"
  height="20" viewBox="0 0 20 20">
  <defs>
    <clipPath id="master_svg0_656_003883">
      <rect x="0" y="0" width="20" height="20" rx="0" />
    </clipPath>
  </defs>
  <g clip-path="url(#master_svg0_656_003883)">
    <g>
      <path
        d="M18.75,10C18.75,14.8325,14.8325,18.75,10,18.75C5.16751,18.75,1.25,14.8325,1.25,10C1.25,5.16751,5.16751,1.25,10,1.25C14.8325,1.25,18.75,5.16751,18.75,10ZM17.0833,10C17.0833,6.08798,13.912,2.91667,10,2.91667C6.08798,2.91667,2.91667,6.08798,2.91667,10C2.91667,13.912,6.08798,17.0833,10,17.0833C13.912,17.0833,17.0833,13.912,17.0833,10ZM6.66675,7.50033L6.66675,12.5003C6.66675,12.9606,7.03984,13.3337,7.50008,13.3337L12.5001,13.3337C12.9603,13.3337,13.3334,12.9606,13.3334,12.5003L13.3334,7.50033C13.3334,7.04009,12.9603,6.66699,12.5001,6.66699L7.50008,6.66699C7.03984,6.66699,6.66675,7.04009,6.66675,7.50033Z"
        fill-rule="evenodd" fill="currentColor" fill-opacity="1" />
    </g>
  </g>
</svg>